<svg width="10" height="13" viewBox="0 0 10 13" fill="none" xmlns="http://www.w3.org/2000/svg"><path d="M9.24 3.88C9.24 2.83 8.39 2 7.36 2 6.31 2 5.5 2.84 5.5 3.88c0 .86.56 1.59 1.33 1.8-.02.37-.1.68-.26.87-.35.44-1.14.54-1.99.6a5 5 0 0 0-1.9.4V4.18A1.88 1.88 0 0 0 2.11.5C1.06.5.24 1.34.24 2.38c0 .84.54 1.57 1.3 1.8v4.66c-.76.24-1.3.96-1.3 1.79 0 1.05.82 1.87 1.87 1.87a1.87 1.87 0 0 0 .66-3.6.96.96 0 0 1 .35-.34c.37-.19.96-.23 1.55-.28 1-.1 2.1-.21 2.79-1.03.32-.4.49-.94.49-1.6a1.85 1.85 0 0 0 1.29-1.78zM2.1 2a.4.4 0 0 1 .38.38c0 .2-.2.37-.38.37a.37.37 0 0 1-.37-.38c0-.18.16-.37.37-.37zm0 9a.37.37 0 0 1-.37-.38c0-.18.16-.37.37-.37a.4.4 0 0 1 .38.38c0 .2-.2.37-.38.37zm5.25-7.5a.4.4 0 0 1 .38.38c0 .2-.2.37-.38.37A.37.37 0 0 1 7 3.87c0-.18.16-.37.37-.37z" fill="#000"/></svg>