<svg width="12" height="15" viewBox="0 0 12 15" fill="none" xmlns="http://www.w3.org/2000/svg"><path d="M11.34 4.09a.78.78 0 0 0-.2-.47L8.48.94A.78.78 0 0 0 8 .75h-.16v3.5h3.5v-.16zM7.62 5.13h3.72v8.96c0 .2-.08.36-.2.47-.13.14-.3.19-.46.19H1.5c-.2 0-.36-.05-.47-.2-.13-.1-.19-.26-.19-.46V1.41c0-.17.06-.33.2-.47.1-.1.27-.19.46-.19h5.47v3.72c0 .19.05.35.19.46.1.14.27.2.46.2zM4.2 11.7l.55-.57c0-.03.03-.05.03-.1 0-.06-.03-.1-.06-.12l-1.09-.98 1.1-.99c.02 0 .05-.02.05-.08 0-.05-.03-.08-.03-.14l-.55-.57c-.02 0-.05-.03-.1-.03-.06 0-.09.03-.09.03L2.24 9.83c-.06.05-.06.08-.06.1 0 .06 0 .09.06.12L4 11.7c0 .03.03.03.08.03.06 0 .09 0 .11-.03zm1.43 1.37c.02.03.05.03.1 0 .03-.03.06-.05.06-.1l1.7-5.78c0-.02-.03-.05-.03-.1L7.38 7 6.6 6.8c-.05 0-.08 0-.1.03-.06.03-.06.05-.06.08l-1.7 5.77c0 .06 0 .08.03.11 0 .06.03.08.08.08l.77.22zM10 10.05c.03-.03.06-.06.06-.11 0-.03-.03-.06-.06-.11L8.22 8.16c-.02 0-.05-.03-.1-.03-.06 0-.09.03-.09.03l-.54.57c-.03.06-.03.09-.03.14 0 .06 0 .08.05.08l1.1.99-1.1.98c-.05.03-.05.06-.05.11 0 .06 0 .08.03.11l.54.57c0 .03.03.03.08.03.06 0 .09 0 .11-.03L10 10.05z" fill="#B8BEC3"/></svg>